<?xml version="1.0" standalone="no"?>
<!DOCTYPE svg PUBLIC "-//W3C//DTD SVG 20010904//EN"
 "http://www.w3.org/TR/2001/REC-SVG-20010904/DTD/svg10.dtd">
<svg version="1.0" xmlns="http://www.w3.org/2000/svg"
 width="1024.000000pt" height="1024.000000pt" viewBox="0 0 1024.000000 1024.000000"
 preserveAspectRatio="xMidYMid meet">
<metadata>
Created by potrace 1.11, written by Peter Selinger 2001-2013
</metadata>
<g transform="translate(0.000000,1024.000000) scale(0.100000,-0.100000)"
fill="#000000" stroke="none">
<path d="M640 7120 l0 -320 640 0 640 0 0 -1920 0 -1920 640 0 640 0 0 1920 0
1920 640 0 640 0 0 320 0 320 -1920 0 -1920 0 0 -320z"/>
<path d="M5120 5200 l0 -2240 1600 0 1600 0 0 320 0 320 320 0 320 0 0 320 0
320 320 0 320 0 0 960 0 960 -320 0 -320 0 0 320 0 320 -320 0 -320 0 0 320 0
320 -1600 0 -1600 0 0 -2240z m2560 1280 l0 -320 320 0 320 0 0 -960 0 -960
-320 0 -320 0 0 -320 0 -320 -640 0 -640 0 0 1600 0 1600 640 0 640 0 0 -320z"/>
</g>
</svg>
